<?xml version="1.0" encoding="UTF-8"?>
<svg id="Layer_1" xmlns="http://www.w3.org/2000/svg" version="1.1" viewBox="0 0 1683.7 500">
  <!-- Generator: Adobe Illustrator 30.5.1, SVG Export Plug-In . SVG Version: 2.1.4 Build 3)  -->
  <defs>
    <style>
      .st0 {
        fill: #ff2e51;
      }

      .st1 {
        fill: #232323;
      }
    </style>
  </defs>
  <polygon class="st0" points="90.2 307.7 158.4 395.9 90.2 483 4.1 416.9 90.2 307.7"/>
  <path class="st0" d="M50.3,92.6l36.7-48.3c13.6-16.8,33.6-27.3,54.6-27.3h60.9c10.5,0,21,2.1,30.4,7.4,9.4,4.2,17.8,11.5,24.1,19.9l37.8,49.3c29.4,38.8,29.4,92.3,0,130.1l-39.9,50.4-68.2-88.1,42-53.5s-1.1,0-1.1-1.1c-7.4-4.2-15.7-6.3-24.1-6.3h-61.9c-8.4,0-16.8,3.1-24.1,7.4l42,53.5,98.6,125.9,81.9,104.9-85,66.1L50.3,222.7c-29.4-37.8-29.4-91.3,0-130.1h0ZM101.7,112.5c1.1,1.1,1.1,2.1,2.1,3.2,2.1-2.1,5.2-3.2,8.4-4.2,9.4-4.2,19.9-7.3,30.4-7.3h60.9c10.5,0,21,2.1,30.4,7.3,2.1,1.1,5.2,3.2,7.4,4.2,7.4-10.5,11.5-25.2,8.4-37.8-1.1-7.3-4.2-14.7-9.4-21-4.2-5.2-10.5-10.5-16.8-13.6-6.3-3.2-13.6-5.2-21-5.2h-60.9c-14.7,0-28.3,7.3-37.8,18.9-11.5,15.7-13.6,38.8-2.1,55.6Z"/>
  <g>
    <path class="st1" d="M432.7,398.9l-23.2-72.9h15.8l13.8,47.5,1.8,6.4h.5l1.8-6,15-47.9h14.5l14.8,47.6,1.9,6.2h.4l1.8-6.1,14-47.7h15.1l-23.5,72.9h-14.9l-15.7-49.3-1.5-5.3h-.4l-1.6,5.3-15.4,49.3h-15Z"/>
    <path class="st1" d="M545.4,398.9l-23.2-72.9h15.8l13.8,47.5,1.8,6.4h.5l1.8-6,15-47.9h14.5l14.8,47.6,1.9,6.2h.4l1.8-6.1,14-47.7h15.1l-23.5,72.9h-14.9l-15.7-49.3-1.5-5.3h-.4l-1.6,5.3-15.4,49.3h-15Z"/>
    <path class="st1" d="M658.1,398.9l-23.2-72.9h15.8l13.8,47.5,1.8,6.4h.5l1.8-6,15-47.9h14.5l14.8,47.6,1.9,6.2h.4l1.8-6.1,14-47.7h15.1l-23.5,72.9h-14.9l-15.7-49.3-1.5-5.3h-.4l-1.6,5.3-15.4,49.3h-15Z"/>
    <path class="st1" d="M757.2,399.9c-3,0-5.5-1-7.6-3.1-2-2.1-3.1-4.6-3.1-7.6s1-5.4,3.1-7.4c2-2,4.6-3.1,7.6-3.1s5.5,1,7.6,3.1,3.1,4.5,3.1,7.4-1,5.5-3.1,7.6c-2.1,2.1-4.6,3.1-7.6,3.1Z"/>
    <path class="st1" d="M784.1,398.9v-102.1h15.5v39.9h.4c2.1-3.9,5.2-7,9.4-9.4s8.8-3.6,13.7-3.6c8.5,0,15,2.5,19.8,7.6,4.7,5,7.1,11.9,7.1,20.5v47.2h-15.5v-44.3c0-5.7-1.4-10-4.2-13.1-2.8-3.1-6.8-4.6-11.9-4.6s-9.5,2.1-13.2,6.4c-3.7,4.3-5.5,9.2-5.5,14.9v40.6h-15.5Z"/>
    <path class="st1" d="M875.8,312.1c-2.7,0-4.9-.9-6.8-2.8-1.9-1.9-2.9-4.1-2.9-6.8s1-5,2.9-6.8c1.9-1.8,4.2-2.7,6.8-2.7s5,.9,6.8,2.7c1.8,1.8,2.7,4.1,2.7,6.8s-.9,4.9-2.7,6.8c-1.8,1.9-4.1,2.8-6.8,2.8ZM868,398.9v-72.9h15.5v72.9h-15.5Z"/>
    <path class="st1" d="M923.2,398.9l-29.4-72.9h16.3l19.2,50.9,1.7,5h.5l1.9-5.1,19.3-50.8h15.9l-29.7,72.9h-15.6Z"/>
    <path class="st1" d="M1007.6,401.3c-10.9,0-19.9-3.7-27-11-7.1-7.3-10.6-16.7-10.6-28.1s3.6-20.6,10.7-27.8c7.1-7.2,16.1-10.8,26.9-10.8s9,.7,12.9,2c4,1.3,7.6,3.5,10.9,6.4,3.3,2.9,6.1,7.1,8.5,12.5l-13.2,5.3c-1.7-3.4-3.5-5.9-5.3-7.7-1.8-1.8-3.9-3-6.3-3.9-2.4-.8-5-1.2-7.8-1.2-6.1,0-11.4,2.3-15.7,6.9-4.3,4.6-6.5,10.6-6.5,18.1s2.2,13.6,6.5,18.4c4.3,4.8,9.5,7.1,15.7,7.1s5.5-.4,8-1.3c2.5-.9,4.6-2.1,6.3-3.6,1.7-1.5,3.6-4.2,5.8-8l13.1,5.3c-2.8,5.7-5.7,9.9-8.8,12.7-3.1,2.8-6.8,4.9-10.8,6.3-4.1,1.4-8.5,2.1-13.3,2.1Z"/>
    <path class="st1" d="M1075.6,401.3c-8,0-14.5-2.3-19.5-6.8s-7.5-10.4-7.5-17.5,2.9-13.2,8.6-17.6c5.8-4.4,13.2-6.6,22.2-6.6s7.7.4,11.3,1.2c3.7.8,6.6,1.9,8.9,3.2v-4.4c0-4.9-1.7-8.9-5.2-11.9-3.5-3-8-4.5-13.5-4.5s-5.8.4-7.9,1.1c-2.1.7-4,1.6-5.6,2.7-1.6,1.1-3.8,3-6.6,5.8l-9.8-8.5c4.1-4,7.5-6.8,10-8.4,2.5-1.6,5.4-2.9,8.7-3.9,3.3-1,7.2-1.4,11.9-1.4,10.3,0,18.3,2.6,24.1,7.8,5.8,5.2,8.7,12.4,8.7,21.5v46h-14.8v-16.9l4.5,6.9h-4.9c-2.2,3.7-5.5,6.6-9.7,8.9-4.2,2.3-8.9,3.4-14,3.4ZM1078.6,389.3c5.9,0,10.9-2.1,14.9-6.2,4.1-4.2,6.1-9.4,6.1-15.7-2.2-1.4-4.9-2.5-7.9-3.3-3-.8-6.2-1.2-9.6-1.2-5.7,0-10.2,1.1-13.5,3.4-3.4,2.3-5,5.7-5,10.3s1.4,6.9,4.2,9.3c2.8,2.3,6.4,3.5,10.8,3.5Z"/>
    <path class="st1" d="M1131.5,398.9v-72.9h14.8v13.5l-2-1.9h2.4c1.4-3.9,4.1-7.2,8-9.9,4-2.7,8.1-4,12.5-4s2.6.1,4,.3,3.1.7,5.2,1.3v15.5c-3-1-5.3-1.6-6.9-1.9-1.6-.3-3-.4-4.1-.4-5.2,0-9.6,2-13.1,6s-5.3,8.9-5.3,14.8v39.7h-15.5Z"/>
    <path class="st1" d="M1217.5,401.3c-10.9,0-19.8-3.6-26.7-10.9-6.9-7.3-10.3-16.6-10.3-28s3.4-20.4,10.2-27.7c6.8-7.3,15.5-11,26.1-11s19,3.2,25.5,9.7c6.5,6.4,9.8,14.5,9.8,24.2v7.9h-63.3v-10.3h48.1c-.3-5.3-2.3-9.7-5.9-13.2-3.6-3.4-8.3-5.2-14.2-5.2s-11.4,2.3-15.3,6.8-5.8,10.7-5.8,18.5,2.2,14.4,6.6,19.1c4.4,4.7,9.9,7.1,16.6,7.1s5.8-.4,8.1-1.3,4.3-2,6.2-3.5c1.8-1.5,3.9-3.9,6.2-7.3l11.1,6.7c-2.9,5-5.8,8.7-9,11.1-3.1,2.4-6.6,4.2-10.3,5.4-3.8,1.2-8.3,1.8-13.6,1.8Z"/>
    <path class="st1" d="M1265.9,429.7v-103.8h14.8v14.3l-3.6-4.1h4c2.2-3.7,5.6-6.7,10-9.1,4.4-2.3,9.3-3.5,14.6-3.5,9.9,0,18.1,3.6,24.7,10.7,6.6,7.1,9.9,16.5,9.9,28s-3.3,20.6-9.8,27.9c-6.6,7.3-14.8,11-24.8,11s-9.9-1-14.2-3.1c-4.3-2.1-7.5-4.9-9.6-8.4h-.4v40h-15.5ZM1303,387.7c6.2,0,11.4-2.4,15.6-7.1,4.2-4.8,6.3-10.8,6.3-18.2s-2.1-13.6-6.4-18.3c-4.3-4.7-9.4-7-15.6-7s-11.4,2.3-15.7,7c-4.3,4.7-6.5,10.7-6.5,18.3s2.1,13.4,6.4,18.2c4.3,4.8,9.5,7.1,15.8,7.1Z"/>
    <path class="st1" d="M1353.9,398.9v-102.1h15.5v39.9h.4c2.1-3.9,5.2-7,9.4-9.4s8.8-3.6,13.7-3.6c8.5,0,15,2.5,19.8,7.6,4.7,5,7.1,11.9,7.1,20.5v47.2h-15.5v-44.3c0-5.7-1.4-10-4.2-13.1-2.8-3.1-6.8-4.6-11.9-4.6s-9.5,2.1-13.2,6.4c-3.7,4.3-5.5,9.2-5.5,14.9v40.6h-15.5Z"/>
    <path class="st1" d="M1446,399.9c-3,0-5.5-1-7.6-3.1-2-2.1-3.1-4.6-3.1-7.6s1-5.4,3.1-7.4c2-2,4.6-3.1,7.6-3.1s5.5,1,7.6,3.1c2.1,2,3.1,4.5,3.1,7.4s-1,5.5-3.1,7.6c-2.1,2.1-4.6,3.1-7.6,3.1Z"/>
    <path class="st1" d="M1505.8,401.3c-11.1,0-20.2-3.7-27.5-11.1-7.2-7.4-10.8-16.6-10.8-27.8s3.6-20.6,10.9-27.9,16.4-10.9,27.4-10.9,20.2,3.7,27.5,11c7.3,7.3,10.9,16.6,10.9,27.8s-3.6,20.4-10.8,27.8c-7.2,7.4-16.4,11.1-27.5,11.1ZM1505.8,387.7c6.5,0,12-2.4,16.4-7.1,4.4-4.7,6.6-10.8,6.6-18.2s-2.2-13.6-6.7-18.3c-4.4-4.7-9.9-7-16.4-7s-12,2.3-16.4,7c-4.4,4.7-6.6,10.7-6.6,18.3s2.2,13.5,6.6,18.2c4.4,4.7,9.9,7.1,16.4,7.1Z"/>
    <path class="st1" d="M1557.8,398.9v-72.9h14.8v13.5l-2-1.9h2.4c1.4-3.9,4.1-7.2,8-9.9,4-2.7,8.1-4,12.5-4s2.6.1,4,.3c1.4.2,3.1.7,5.2,1.3v15.5c-3-1-5.3-1.6-6.9-1.9s-3-.4-4.1-.4c-5.2,0-9.6,2-13.1,6-3.6,4-5.3,8.9-5.3,14.8v39.7h-15.5Z"/>
    <path class="st1" d="M1643.5,432.1c-4.8,0-9.1-.6-13-1.9-3.9-1.2-7.5-3.1-10.7-5.5-3.2-2.4-6.5-6.6-9.9-12.4l12.8-6.6c2.7,4.3,4.9,7.2,6.8,8.8,1.9,1.6,4,2.7,6.4,3.5,2.4.8,4.9,1.2,7.5,1.2,7.1,0,12.5-2,16.2-6.1,3.7-4.1,5.6-9.8,5.6-17.1v-7.8h-.5c-2.5,3.8-5.9,6.7-10,8.8-4.2,2.1-8.8,3.1-13.9,3.1-9.7,0-17.8-3.5-24.3-10.4-6.4-6.9-9.7-16.2-9.7-27.8s3.3-20.7,9.8-27.7c6.6-7,14.7-10.5,24.4-10.5s9.8,1.1,14.1,3.2c4.3,2.1,7.7,5.1,10.1,8.8h4.1l-3.6,4.1v-13.8h14.8v69.6c0,11.6-3.3,20.6-9.9,27-6.6,6.3-15.6,9.5-27.1,9.5ZM1643.9,386.6c6.3,0,11.5-2.3,15.6-6.9,4.1-4.6,6.2-10.7,6.2-18.2s-2.1-13.4-6.2-17.8c-4.1-4.4-9.3-6.6-15.6-6.6s-11.5,2.2-15.7,6.6c-4.2,4.4-6.2,10.4-6.2,18s2.1,14.1,6.2,18.4c4.1,4.3,9.4,6.5,15.7,6.5Z"/>
  </g>
  <g>
    <path d="M409.5,265.6V103.3h35.8v162.2h-35.8ZM430.4,199.6v-33.3h94.5v33.3h-94.5ZM510,265.6V103.3h35.8v162.2h-35.8Z"/>
    <path d="M579.1,265.6V103.3h36.3v162.2h-36.3Z"/>
    <path d="M692.6,265.6l-59.3-162.2h38.3l33,97,5.4,17.4h.8l5.3-17.2,32.9-97.2h37.6l-61.2,162.2h-32.9Z"/>
    <path d="M930.4,269.5c-24.5,0-44.7-8-60.8-24.1-16.1-16.1-24.1-36.5-24.1-61.2s8-45.1,24.1-61c16.1-15.9,36.3-23.8,60.7-23.8s14.8,1,21.9,2.9c7.1,2,13.7,4.7,19.8,8.2,6,3.5,12.5,8.7,19.5,15.7l-24,24.9c-4.7-5-8.7-8.5-12.1-10.6-3.4-2.1-7.1-3.7-11.3-4.8s-8.7-1.7-13.5-1.7c-14,0-25.8,4.6-35.1,13.9-9.4,9.3-14,21.4-14,36.3s4.6,27,13.9,36.5c9.3,9.4,21,14.2,35.1,14.2s9.8-.7,14.3-2.1c4.6-1.4,8.8-3.4,12.8-5.9,4-2.6,8.2-6.4,12.6-11.6l24.6,24.9c-7.3,8-14.2,13.9-20.6,17.6-6.4,3.7-13.3,6.6-20.7,8.7-7.4,2.1-15.2,3.1-23.2,3.1Z"/>
    <path d="M1046.9,269.5c-12.7,0-22.8-3.5-30.5-10.4-7.6-6.9-11.4-16-11.4-27.2s4.6-21.5,13.8-28.4c9.2-6.9,21.2-10.4,36-10.4s11.4.6,16.7,1.7c5.2,1.1,9.7,2.6,13.5,4.3v-6.8c0-6.6-2.3-11.9-6.8-15.7-4.5-3.8-10.8-5.7-18.7-5.7s-8.9.5-12.2,1.5c-3.3,1-6.5,2.3-9.6,4-3.1,1.7-7,4.6-11.6,8.6l-17.3-18.7c8.2-6.3,14.6-10.8,19.4-13.3s10.1-4.4,16-5.8c5.9-1.4,12.3-2,19.2-2,17.7,0,31.5,4.1,41.1,12.3,9.7,8.2,14.5,19.9,14.5,35.2v73h-33.9v-24.6l7.9,10.4h-8.7c-3.3,5.2-8.3,9.5-14.9,13-6.6,3.4-14.1,5.2-22.5,5.2ZM1057.7,246.6c8,0,14.6-2.8,19.7-8.5,5.1-5.7,7.6-13.3,7.6-22.9-2.9-1.6-6.4-2.9-10.3-3.9-3.9-1-8.1-1.5-12.6-1.5-7.3,0-13.2,1.6-17.7,4.8-4.6,3.2-6.9,8-6.9,14.4s1.8,9.9,5.6,13c3.7,3.1,8.6,4.6,14.6,4.6Z"/>
    <path d="M1145.1,265.6v-116.5h33.9v22.3l-3.5-4.5h4.3c2.2-6.4,6.3-11.7,12.3-15.7,6-4,12.4-6.1,19.3-6.1s4.3.2,6.5.6c2.2.4,5.1,1.2,8.8,2.5v32.9c-4.8-1.8-8.7-3-11.5-3.7-2.8-.6-5.5-1-8.1-1-7.9,0-14.2,2.8-19.1,8.3-4.9,5.6-7.4,12.7-7.4,21.5v59.4h-35.5Z"/>
    <path d="M1294.1,269.5c-18.6,0-33.5-5.9-44.7-17.6-11.2-11.7-16.8-26.6-16.8-44.6s5.7-32.8,17-44.6c11.3-11.7,26-17.6,44.1-17.6s30.9,5.3,41.9,15.9c11,10.6,16.5,24.2,16.5,40.8v12.2h-102.4v-17.7h69.8c-.5-7.1-3.1-12.9-7.6-17.3-4.6-4.4-10.6-6.6-18.2-6.6s-14.9,3-19.9,8.9c-4.9,5.9-7.4,14.1-7.4,24.6s2.9,20.4,8.7,27c5.8,6.6,13.6,9.9,23.2,9.9s8.1-.6,11.5-1.8c3.4-1.2,6.4-2.8,9.1-4.8,2.7-2,5.8-5.1,9.3-9.5l20.7,16.1c-5.4,7.2-10.7,12.5-15.7,16-5.1,3.5-10.6,6.1-16.6,7.9-6,1.8-13.5,2.7-22.4,2.7Z"/>
    <path d="M1425.1,265.6V103.3h63.6c17.1,0,30.9,5,41.6,15.1,10.7,10,16,23.8,16,41.4s-5.6,30.8-16.8,40.6c-11.2,9.8-24.9,14.7-41.2,14.7h-43.5v-30.4h40.7c7.4,0,13.4-2.2,18-6.7,4.6-4.5,6.9-10.4,6.9-17.7s-2.3-13.5-6.8-18.2c-4.5-4.7-10.4-7.1-17.6-7.1h-25.2v130.6h-35.8Z"/>
    <path d="M1565.6,265.6V103.3h35v62.8h.8c3.3-6.3,8.3-11.4,15.1-15.2,6.7-3.8,14.1-5.7,22.1-5.7,12.9,0,23.1,4,30.6,11.9,7.5,7.9,11.3,18.5,11.3,31.6v76.9h-35.5v-68.8c0-7.3-1.8-13-5.4-17-3.6-4-8.7-6-15.2-6s-12.1,2.6-16.6,7.9c-4.5,5.3-6.7,11.6-6.7,19v64.9h-35.5Z"/>
  </g>
</svg>